<mxfile host="drawio-plugin" modified="2021-08-30T07:47:10.690Z" agent="5.0 (Windows NT 6.2; Win64; x64) AppleWebKit/537.36 (KHTML, like Gecko) Chrome/89.0.4389.114 Safari/537.36" etag="IGoH_DdXvWE7RFqgl9L4" version="14.7.4" type="embed"><diagram id="07qyp4UeAVPaV8b2i2m1" name="Pagina-1"><mxGraphModel dx="1379" dy="743" grid="1" gridSize="10" guides="1" tooltips="1" connect="1" arrows="1" fold="1" page="1" pageScale="1" pageWidth="2336" pageHeight="1654" math="0" shadow="0"><root><mxCell id="0"/><mxCell id="1" parent="0"/><mxCell id="UM2SaeOZdzqB2MnFIt9n-90" style="edgeStyle=orthogonalEdgeStyle;rounded=0;orthogonalLoop=1;jettySize=auto;html=1;endArrow=none;endFill=0;startArrow=classic;startFill=1;" parent="1" source="UM2SaeOZdzqB2MnFIt9n-1" target="UM2SaeOZdzqB2MnFIt9n-75" edge="1"><mxGeometry relative="1" as="geometry"><Array as="points"><mxPoint x="560" y="1070"/><mxPoint x="1410" y="1070"/></Array><mxPoint x="560" y="520" as="sourcePoint"/></mxGeometry></mxCell><mxCell id="UM2SaeOZdzqB2MnFIt9n-91" value="&lt;b&gt;&lt;font style=&quot;font-size: 14px&quot;&gt;moderatoreID = UserID&lt;/font&gt;&lt;/b&gt;" style="edgeLabel;html=1;align=center;verticalAlign=middle;resizable=0;points=[];" parent="UM2SaeOZdzqB2MnFIt9n-90" vertex="1" connectable="0"><mxGeometry x="-0.3643" y="-1" relative="1" as="geometry"><mxPoint x="847" y="-576" as="offset"/></mxGeometry></mxCell><mxCell id="pHJJILmyUadZpqao-1yw-19" style="edgeStyle=orthogonalEdgeStyle;rounded=0;orthogonalLoop=1;jettySize=auto;html=1;entryX=1;entryY=0.5;entryDx=0;entryDy=0;" parent="1" source="UM2SaeOZdzqB2MnFIt9n-1" target="pHJJILmyUadZpqao-1yw-11" edge="1"><mxGeometry relative="1" as="geometry"/></mxCell><mxCell id="UM2SaeOZdzqB2MnFIt9n-1" value="Users" style="shape=table;startSize=30;container=1;collapsible=1;childLayout=tableLayout;fixedRows=1;rowLines=0;fontStyle=1;align=center;resizeLast=1;" parent="1" vertex="1"><mxGeometry x="470" y="250" width="180" height="300" as="geometry"><mxRectangle x="120" y="240" width="60" height="30" as="alternateBounds"/></mxGeometry></mxCell><mxCell id="UM2SaeOZdzqB2MnFIt9n-2" value="" style="shape=partialRectangle;collapsible=0;dropTarget=0;pointerEvents=0;fillColor=none;top=0;left=0;bottom=1;right=0;points=[[0,0.5],[1,0.5]];portConstraint=eastwest;" parent="UM2SaeOZdzqB2MnFIt9n-1" vertex="1"><mxGeometry y="30" width="180" height="30" as="geometry"/></mxCell><mxCell id="UM2SaeOZdzqB2MnFIt9n-3" value="PK" style="shape=partialRectangle;connectable=0;fillColor=none;top=0;left=0;bottom=0;right=0;fontStyle=1;overflow=hidden;" parent="UM2SaeOZdzqB2MnFIt9n-2" vertex="1"><mxGeometry width="30" height="30" as="geometry"/></mxCell><mxCell id="UM2SaeOZdzqB2MnFIt9n-4" value="userID" style="shape=partialRectangle;connectable=0;fillColor=none;top=0;left=0;bottom=0;right=0;align=left;spacingLeft=6;fontStyle=5;overflow=hidden;" parent="UM2SaeOZdzqB2MnFIt9n-2" vertex="1"><mxGeometry x="30" width="150" height="30" as="geometry"/></mxCell><mxCell id="UM2SaeOZdzqB2MnFIt9n-5" value="" style="shape=partialRectangle;collapsible=0;dropTarget=0;pointerEvents=0;fillColor=none;top=0;left=0;bottom=0;right=0;points=[[0,0.5],[1,0.5]];portConstraint=eastwest;" parent="UM2SaeOZdzqB2MnFIt9n-1" vertex="1"><mxGeometry y="60" width="180" height="30" as="geometry"/></mxCell><mxCell id="UM2SaeOZdzqB2MnFIt9n-6" value="" style="shape=partialRectangle;connectable=0;fillColor=none;top=0;left=0;bottom=0;right=0;editable=1;overflow=hidden;" parent="UM2SaeOZdzqB2MnFIt9n-5" vertex="1"><mxGeometry width="30" height="30" as="geometry"/></mxCell><mxCell id="UM2SaeOZdzqB2MnFIt9n-7" value="nome" style="shape=partialRectangle;connectable=0;fillColor=none;top=0;left=0;bottom=0;right=0;align=left;spacingLeft=6;overflow=hidden;" parent="UM2SaeOZdzqB2MnFIt9n-5" vertex="1"><mxGeometry x="30" width="150" height="30" as="geometry"/></mxCell><mxCell id="UM2SaeOZdzqB2MnFIt9n-8" value="" style="shape=partialRectangle;collapsible=0;dropTarget=0;pointerEvents=0;fillColor=none;top=0;left=0;bottom=0;right=0;points=[[0,0.5],[1,0.5]];portConstraint=eastwest;" parent="UM2SaeOZdzqB2MnFIt9n-1" vertex="1"><mxGeometry y="90" width="180" height="30" as="geometry"/></mxCell><mxCell id="UM2SaeOZdzqB2MnFIt9n-9" value="" style="shape=partialRectangle;connectable=0;fillColor=none;top=0;left=0;bottom=0;right=0;editable=1;overflow=hidden;" parent="UM2SaeOZdzqB2MnFIt9n-8" vertex="1"><mxGeometry width="30" height="30" as="geometry"/></mxCell><mxCell id="UM2SaeOZdzqB2MnFIt9n-10" value="cognome" style="shape=partialRectangle;connectable=0;fillColor=none;top=0;left=0;bottom=0;right=0;align=left;spacingLeft=6;overflow=hidden;" parent="UM2SaeOZdzqB2MnFIt9n-8" vertex="1"><mxGeometry x="30" width="150" height="30" as="geometry"/></mxCell><mxCell id="PZjLYSbsIgL1w7_rFqCP-2" value="" style="shape=partialRectangle;collapsible=0;dropTarget=0;pointerEvents=0;fillColor=none;top=0;left=0;bottom=0;right=0;points=[[0,0.5],[1,0.5]];portConstraint=eastwest;" parent="UM2SaeOZdzqB2MnFIt9n-1" vertex="1"><mxGeometry y="120" width="180" height="30" as="geometry"/></mxCell><mxCell id="PZjLYSbsIgL1w7_rFqCP-3" value="" style="shape=partialRectangle;connectable=0;fillColor=none;top=0;left=0;bottom=0;right=0;editable=1;overflow=hidden;" parent="PZjLYSbsIgL1w7_rFqCP-2" vertex="1"><mxGeometry width="30" height="30" as="geometry"/></mxCell><mxCell id="PZjLYSbsIgL1w7_rFqCP-4" value="email" style="shape=partialRectangle;connectable=0;fillColor=none;top=0;left=0;bottom=0;right=0;align=left;spacingLeft=6;overflow=hidden;" parent="PZjLYSbsIgL1w7_rFqCP-2" vertex="1"><mxGeometry x="30" width="150" height="30" as="geometry"/></mxCell><mxCell id="UM2SaeOZdzqB2MnFIt9n-11" value="" style="shape=partialRectangle;collapsible=0;dropTarget=0;pointerEvents=0;fillColor=none;top=0;left=0;bottom=0;right=0;points=[[0,0.5],[1,0.5]];portConstraint=eastwest;" parent="UM2SaeOZdzqB2MnFIt9n-1" vertex="1"><mxGeometry y="150" width="180" height="30" as="geometry"/></mxCell><mxCell id="UM2SaeOZdzqB2MnFIt9n-12" value="" style="shape=partialRectangle;connectable=0;fillColor=none;top=0;left=0;bottom=0;right=0;editable=1;overflow=hidden;" parent="UM2SaeOZdzqB2MnFIt9n-11" vertex="1"><mxGeometry width="30" height="30" as="geometry"/></mxCell><mxCell id="UM2SaeOZdzqB2MnFIt9n-13" value="password" style="shape=partialRectangle;connectable=0;fillColor=none;top=0;left=0;bottom=0;right=0;align=left;spacingLeft=6;overflow=hidden;" parent="UM2SaeOZdzqB2MnFIt9n-11" vertex="1"><mxGeometry x="30" width="150" height="30" as="geometry"/></mxCell><mxCell id="UM2SaeOZdzqB2MnFIt9n-20" value="" style="shape=partialRectangle;collapsible=0;dropTarget=0;pointerEvents=0;fillColor=none;top=0;left=0;bottom=0;right=0;points=[[0,0.5],[1,0.5]];portConstraint=eastwest;" parent="UM2SaeOZdzqB2MnFIt9n-1" vertex="1"><mxGeometry y="180" width="180" height="30" as="geometry"/></mxCell><mxCell id="UM2SaeOZdzqB2MnFIt9n-21" value="" style="shape=partialRectangle;connectable=0;fillColor=none;top=0;left=0;bottom=0;right=0;editable=1;overflow=hidden;" parent="UM2SaeOZdzqB2MnFIt9n-20" vertex="1"><mxGeometry width="30" height="30" as="geometry"/></mxCell><mxCell id="UM2SaeOZdzqB2MnFIt9n-22" value="corsoStudio" style="shape=partialRectangle;connectable=0;fillColor=none;top=0;left=0;bottom=0;right=0;align=left;spacingLeft=6;overflow=hidden;" parent="UM2SaeOZdzqB2MnFIt9n-20" vertex="1"><mxGeometry x="30" width="150" height="30" as="geometry"/></mxCell><mxCell id="UM2SaeOZdzqB2MnFIt9n-17" value="" style="shape=partialRectangle;collapsible=0;dropTarget=0;pointerEvents=0;fillColor=none;top=0;left=0;bottom=0;right=0;points=[[0,0.5],[1,0.5]];portConstraint=eastwest;" parent="UM2SaeOZdzqB2MnFIt9n-1" vertex="1"><mxGeometry y="210" width="180" height="30" as="geometry"/></mxCell><mxCell id="UM2SaeOZdzqB2MnFIt9n-18" value="FK" style="shape=partialRectangle;connectable=0;fillColor=none;top=0;left=0;bottom=0;right=0;editable=1;overflow=hidden;" parent="UM2SaeOZdzqB2MnFIt9n-17" vertex="1"><mxGeometry width="30" height="30" as="geometry"/></mxCell><mxCell id="UM2SaeOZdzqB2MnFIt9n-19" value="fotoProfiloID" style="shape=partialRectangle;connectable=0;fillColor=none;top=0;left=0;bottom=0;right=0;align=left;spacingLeft=6;overflow=hidden;" parent="UM2SaeOZdzqB2MnFIt9n-17" vertex="1"><mxGeometry x="30" width="150" height="30" as="geometry"/></mxCell><mxCell id="UM2SaeOZdzqB2MnFIt9n-23" value="" style="shape=partialRectangle;collapsible=0;dropTarget=0;pointerEvents=0;fillColor=none;top=0;left=0;bottom=0;right=0;points=[[0,0.5],[1,0.5]];portConstraint=eastwest;" parent="UM2SaeOZdzqB2MnFIt9n-1" vertex="1"><mxGeometry y="240" width="180" height="30" as="geometry"/></mxCell><mxCell id="UM2SaeOZdzqB2MnFIt9n-24" value="" style="shape=partialRectangle;connectable=0;fillColor=none;top=0;left=0;bottom=0;right=0;editable=1;overflow=hidden;" parent="UM2SaeOZdzqB2MnFIt9n-23" vertex="1"><mxGeometry width="30" height="30" as="geometry"/></mxCell><mxCell id="UM2SaeOZdzqB2MnFIt9n-25" value="moderatore" style="shape=partialRectangle;connectable=0;fillColor=none;top=0;left=0;bottom=0;right=0;align=left;spacingLeft=6;overflow=hidden;" parent="UM2SaeOZdzqB2MnFIt9n-23" vertex="1"><mxGeometry x="30" width="150" height="30" as="geometry"/></mxCell><mxCell id="UM2SaeOZdzqB2MnFIt9n-29" value="" style="shape=partialRectangle;collapsible=0;dropTarget=0;pointerEvents=0;fillColor=none;top=0;left=0;bottom=0;right=0;points=[[0,0.5],[1,0.5]];portConstraint=eastwest;" parent="UM2SaeOZdzqB2MnFIt9n-1" vertex="1"><mxGeometry y="270" width="180" height="30" as="geometry"/></mxCell><mxCell id="UM2SaeOZdzqB2MnFIt9n-30" value="" style="shape=partialRectangle;connectable=0;fillColor=none;top=0;left=0;bottom=0;right=0;editable=1;overflow=hidden;" parent="UM2SaeOZdzqB2MnFIt9n-29" vertex="1"><mxGeometry width="30" height="30" as="geometry"/></mxCell><mxCell id="UM2SaeOZdzqB2MnFIt9n-31" value="admin" style="shape=partialRectangle;connectable=0;fillColor=none;top=0;left=0;bottom=0;right=0;align=left;spacingLeft=6;overflow=hidden;" parent="UM2SaeOZdzqB2MnFIt9n-29" vertex="1"><mxGeometry x="30" width="150" height="30" as="geometry"/></mxCell><mxCell id="UM2SaeOZdzqB2MnFIt9n-45" style="edgeStyle=orthogonalEdgeStyle;rounded=0;orthogonalLoop=1;jettySize=auto;html=1;endArrow=classic;endFill=1;" parent="1" source="UM2SaeOZdzqB2MnFIt9n-32" target="UM2SaeOZdzqB2MnFIt9n-1" edge="1"><mxGeometry relative="1" as="geometry"><Array as="points"><mxPoint x="560" y="110"/></Array><mxPoint x="560" y="250" as="targetPoint"/></mxGeometry></mxCell><mxCell id="UM2SaeOZdzqB2MnFIt9n-46" value="&lt;span style=&quot;font-size: 14px&quot;&gt;&lt;b&gt;autoreMessID = userID&lt;/b&gt;&lt;/span&gt;" style="edgeLabel;html=1;align=center;verticalAlign=middle;resizable=0;points=[];" parent="UM2SaeOZdzqB2MnFIt9n-45" vertex="1" connectable="0"><mxGeometry x="-0.2593" relative="1" as="geometry"><mxPoint x="-5" y="-10" as="offset"/></mxGeometry></mxCell><mxCell id="UM2SaeOZdzqB2MnFIt9n-32" value="Messaggi" style="shape=table;startSize=30;container=1;collapsible=1;childLayout=tableLayout;fixedRows=1;rowLines=0;fontStyle=1;align=center;resizeLast=1;" parent="1" vertex="1"><mxGeometry x="650" y="40" width="180" height="160" as="geometry"/></mxCell><mxCell id="UM2SaeOZdzqB2MnFIt9n-33" value="" style="shape=partialRectangle;collapsible=0;dropTarget=0;pointerEvents=0;fillColor=none;top=0;left=0;bottom=1;right=0;points=[[0,0.5],[1,0.5]];portConstraint=eastwest;" parent="UM2SaeOZdzqB2MnFIt9n-32" vertex="1"><mxGeometry y="30" width="180" height="30" as="geometry"/></mxCell><mxCell id="UM2SaeOZdzqB2MnFIt9n-34" value="PK" style="shape=partialRectangle;connectable=0;fillColor=none;top=0;left=0;bottom=0;right=0;fontStyle=1;overflow=hidden;" parent="UM2SaeOZdzqB2MnFIt9n-33" vertex="1"><mxGeometry width="30" height="30" as="geometry"/></mxCell><mxCell id="UM2SaeOZdzqB2MnFIt9n-35" value="messID" style="shape=partialRectangle;connectable=0;fillColor=none;top=0;left=0;bottom=0;right=0;align=left;spacingLeft=6;fontStyle=5;overflow=hidden;" parent="UM2SaeOZdzqB2MnFIt9n-33" vertex="1"><mxGeometry x="30" width="150" height="30" as="geometry"/></mxCell><mxCell id="UM2SaeOZdzqB2MnFIt9n-36" value="" style="shape=partialRectangle;collapsible=0;dropTarget=0;pointerEvents=0;fillColor=none;top=0;left=0;bottom=0;right=0;points=[[0,0.5],[1,0.5]];portConstraint=eastwest;" parent="UM2SaeOZdzqB2MnFIt9n-32" vertex="1"><mxGeometry y="60" width="180" height="30" as="geometry"/></mxCell><mxCell id="UM2SaeOZdzqB2MnFIt9n-37" value="FK" style="shape=partialRectangle;connectable=0;fillColor=none;top=0;left=0;bottom=0;right=0;editable=1;overflow=hidden;" parent="UM2SaeOZdzqB2MnFIt9n-36" vertex="1"><mxGeometry width="30" height="30" as="geometry"/></mxCell><mxCell id="UM2SaeOZdzqB2MnFIt9n-38" value="autoreMessID" style="shape=partialRectangle;connectable=0;fillColor=none;top=0;left=0;bottom=0;right=0;align=left;spacingLeft=6;overflow=hidden;" parent="UM2SaeOZdzqB2MnFIt9n-36" vertex="1"><mxGeometry x="30" width="150" height="30" as="geometry"/></mxCell><mxCell id="UM2SaeOZdzqB2MnFIt9n-39" value="" style="shape=partialRectangle;collapsible=0;dropTarget=0;pointerEvents=0;fillColor=none;top=0;left=0;bottom=0;right=0;points=[[0,0.5],[1,0.5]];portConstraint=eastwest;" parent="UM2SaeOZdzqB2MnFIt9n-32" vertex="1"><mxGeometry y="90" width="180" height="30" as="geometry"/></mxCell><mxCell id="UM2SaeOZdzqB2MnFIt9n-40" value="" style="shape=partialRectangle;connectable=0;fillColor=none;top=0;left=0;bottom=0;right=0;editable=1;overflow=hidden;" parent="UM2SaeOZdzqB2MnFIt9n-39" vertex="1"><mxGeometry width="30" height="30" as="geometry"/></mxCell><mxCell id="UM2SaeOZdzqB2MnFIt9n-41" value="testo" style="shape=partialRectangle;connectable=0;fillColor=none;top=0;left=0;bottom=0;right=0;align=left;spacingLeft=6;overflow=hidden;" parent="UM2SaeOZdzqB2MnFIt9n-39" vertex="1"><mxGeometry x="30" width="150" height="30" as="geometry"/></mxCell><mxCell id="UM2SaeOZdzqB2MnFIt9n-42" value="" style="shape=partialRectangle;collapsible=0;dropTarget=0;pointerEvents=0;fillColor=none;top=0;left=0;bottom=0;right=0;points=[[0,0.5],[1,0.5]];portConstraint=eastwest;" parent="UM2SaeOZdzqB2MnFIt9n-32" vertex="1"><mxGeometry y="120" width="180" height="30" as="geometry"/></mxCell><mxCell id="UM2SaeOZdzqB2MnFIt9n-43" value="" style="shape=partialRectangle;connectable=0;fillColor=none;top=0;left=0;bottom=0;right=0;editable=1;overflow=hidden;" parent="UM2SaeOZdzqB2MnFIt9n-42" vertex="1"><mxGeometry width="30" height="30" as="geometry"/></mxCell><mxCell id="UM2SaeOZdzqB2MnFIt9n-44" value="data" style="shape=partialRectangle;connectable=0;fillColor=none;top=0;left=0;bottom=0;right=0;align=left;spacingLeft=6;overflow=hidden;" parent="UM2SaeOZdzqB2MnFIt9n-42" vertex="1"><mxGeometry x="30" width="150" height="30" as="geometry"/></mxCell><mxCell id="UM2SaeOZdzqB2MnFIt9n-88" style="edgeStyle=orthogonalEdgeStyle;rounded=0;orthogonalLoop=1;jettySize=auto;html=1;endArrow=classic;endFill=1;" parent="1" source="UM2SaeOZdzqB2MnFIt9n-47" target="UM2SaeOZdzqB2MnFIt9n-75" edge="1"><mxGeometry relative="1" as="geometry"><Array as="points"><mxPoint x="1140" y="370"/><mxPoint x="1140" y="370"/></Array></mxGeometry></mxCell><mxCell id="UM2SaeOZdzqB2MnFIt9n-89" value="&lt;b&gt;&lt;font style=&quot;font-size: 14px&quot;&gt;catThreadID = categoriaID&lt;/font&gt;&lt;/b&gt;" style="edgeLabel;html=1;align=center;verticalAlign=middle;resizable=0;points=[];" parent="UM2SaeOZdzqB2MnFIt9n-88" vertex="1" connectable="0"><mxGeometry x="-0.3222" y="-2" relative="1" as="geometry"><mxPoint x="12" y="-17" as="offset"/></mxGeometry></mxCell><mxCell id="UM2SaeOZdzqB2MnFIt9n-92" style="edgeStyle=orthogonalEdgeStyle;rounded=0;orthogonalLoop=1;jettySize=auto;html=1;endArrow=classic;endFill=1;" parent="1" source="UM2SaeOZdzqB2MnFIt9n-47" target="UM2SaeOZdzqB2MnFIt9n-1" edge="1"><mxGeometry relative="1" as="geometry"><Array as="points"><mxPoint x="830" y="385"/><mxPoint x="830" y="385"/></Array><mxPoint x="700" y="370" as="targetPoint"/></mxGeometry></mxCell><mxCell id="UM2SaeOZdzqB2MnFIt9n-93" value="&lt;b&gt;&lt;font style=&quot;font-size: 14px&quot;&gt;autoreThreadID = userID&lt;/font&gt;&lt;/b&gt;" style="edgeLabel;html=1;align=center;verticalAlign=middle;resizable=0;points=[];" parent="UM2SaeOZdzqB2MnFIt9n-92" vertex="1" connectable="0"><mxGeometry x="-0.3769" y="2" relative="1" as="geometry"><mxPoint x="-18" y="-17" as="offset"/></mxGeometry></mxCell><mxCell id="UM2SaeOZdzqB2MnFIt9n-177" style="edgeStyle=orthogonalEdgeStyle;rounded=0;orthogonalLoop=1;jettySize=auto;html=1;endArrow=classic;endFill=1;" parent="1" source="UM2SaeOZdzqB2MnFIt9n-47" target="UM2SaeOZdzqB2MnFIt9n-123" edge="1"><mxGeometry relative="1" as="geometry"/></mxCell><mxCell id="UM2SaeOZdzqB2MnFIt9n-198" value="&lt;b&gt;&lt;font style=&quot;font-size: 14px&quot;&gt;valutazioneThreadID = valutazioneID&lt;/font&gt;&lt;/b&gt;" style="edgeLabel;html=1;align=center;verticalAlign=middle;resizable=0;points=[];" parent="UM2SaeOZdzqB2MnFIt9n-177" vertex="1" connectable="0"><mxGeometry x="-0.4027" y="3" relative="1" as="geometry"><mxPoint x="8" y="-12" as="offset"/></mxGeometry></mxCell><mxCell id="UM2SaeOZdzqB2MnFIt9n-214" style="edgeStyle=orthogonalEdgeStyle;rounded=0;orthogonalLoop=1;jettySize=auto;html=1;startArrow=classic;startFill=1;endArrow=none;endFill=0;" parent="1" source="UM2SaeOZdzqB2MnFIt9n-47" target="UM2SaeOZdzqB2MnFIt9n-199" edge="1"><mxGeometry relative="1" as="geometry"><Array as="points"><mxPoint x="1010" y="210"/></Array></mxGeometry></mxCell><mxCell id="UM2SaeOZdzqB2MnFIt9n-218" value="&lt;b&gt;&lt;font style=&quot;font-size: 14px&quot;&gt;threadID = threadID&lt;/font&gt;&lt;/b&gt;" style="edgeLabel;html=1;align=center;verticalAlign=middle;resizable=0;points=[];" parent="UM2SaeOZdzqB2MnFIt9n-214" vertex="1" connectable="0"><mxGeometry x="0.525" y="-2" relative="1" as="geometry"><mxPoint x="25" y="-12" as="offset"/></mxGeometry></mxCell><mxCell id="UM2SaeOZdzqB2MnFIt9n-47" value="Threads" style="shape=table;startSize=30;container=1;collapsible=1;childLayout=tableLayout;fixedRows=1;rowLines=0;fontStyle=1;align=center;resizeLast=1;fillColor=#FFFFFF;" parent="1" vertex="1"><mxGeometry x="880" y="300" width="180" height="250" as="geometry"/></mxCell><mxCell id="UM2SaeOZdzqB2MnFIt9n-48" value="" style="shape=partialRectangle;collapsible=0;dropTarget=0;pointerEvents=0;fillColor=none;top=0;left=0;bottom=1;right=0;points=[[0,0.5],[1,0.5]];portConstraint=eastwest;" parent="UM2SaeOZdzqB2MnFIt9n-47" vertex="1"><mxGeometry y="30" width="180" height="30" as="geometry"/></mxCell><mxCell id="UM2SaeOZdzqB2MnFIt9n-49" value="PK" style="shape=partialRectangle;connectable=0;fillColor=none;top=0;left=0;bottom=0;right=0;fontStyle=1;overflow=hidden;" parent="UM2SaeOZdzqB2MnFIt9n-48" vertex="1"><mxGeometry width="30" height="30" as="geometry"/></mxCell><mxCell id="UM2SaeOZdzqB2MnFIt9n-50" value="threadID" style="shape=partialRectangle;connectable=0;fillColor=none;top=0;left=0;bottom=0;right=0;align=left;spacingLeft=6;fontStyle=5;overflow=hidden;" parent="UM2SaeOZdzqB2MnFIt9n-48" vertex="1"><mxGeometry x="30" width="150" height="30" as="geometry"/></mxCell><mxCell id="UM2SaeOZdzqB2MnFIt9n-51" value="" style="shape=partialRectangle;collapsible=0;dropTarget=0;pointerEvents=0;fillColor=none;top=0;left=0;bottom=0;right=0;points=[[0,0.5],[1,0.5]];portConstraint=eastwest;" parent="UM2SaeOZdzqB2MnFIt9n-47" vertex="1"><mxGeometry y="60" width="180" height="30" as="geometry"/></mxCell><mxCell id="UM2SaeOZdzqB2MnFIt9n-52" value="FK" style="shape=partialRectangle;connectable=0;fillColor=none;top=0;left=0;bottom=0;right=0;editable=1;overflow=hidden;" parent="UM2SaeOZdzqB2MnFIt9n-51" vertex="1"><mxGeometry width="30" height="30" as="geometry"/></mxCell><mxCell id="UM2SaeOZdzqB2MnFIt9n-53" value="autoreThreadId" style="shape=partialRectangle;connectable=0;fillColor=none;top=0;left=0;bottom=0;right=0;align=left;spacingLeft=6;overflow=hidden;" parent="UM2SaeOZdzqB2MnFIt9n-51" vertex="1"><mxGeometry x="30" width="150" height="30" as="geometry"/></mxCell><mxCell id="UM2SaeOZdzqB2MnFIt9n-57" value="" style="shape=partialRectangle;collapsible=0;dropTarget=0;pointerEvents=0;fillColor=none;top=0;left=0;bottom=0;right=0;points=[[0,0.5],[1,0.5]];portConstraint=eastwest;" parent="UM2SaeOZdzqB2MnFIt9n-47" vertex="1"><mxGeometry y="90" width="180" height="30" as="geometry"/></mxCell><mxCell id="UM2SaeOZdzqB2MnFIt9n-58" value="FK" style="shape=partialRectangle;connectable=0;fillColor=none;top=0;left=0;bottom=0;right=0;editable=1;overflow=hidden;" parent="UM2SaeOZdzqB2MnFIt9n-57" vertex="1"><mxGeometry width="30" height="30" as="geometry"/></mxCell><mxCell id="UM2SaeOZdzqB2MnFIt9n-59" value="catThreadID" style="shape=partialRectangle;connectable=0;fillColor=none;top=0;left=0;bottom=0;right=0;align=left;spacingLeft=6;overflow=hidden;" parent="UM2SaeOZdzqB2MnFIt9n-57" vertex="1"><mxGeometry x="30" width="150" height="30" as="geometry"/></mxCell><mxCell id="UM2SaeOZdzqB2MnFIt9n-195" value="" style="shape=partialRectangle;collapsible=0;dropTarget=0;pointerEvents=0;fillColor=none;top=0;left=0;bottom=0;right=0;points=[[0,0.5],[1,0.5]];portConstraint=eastwest;" parent="UM2SaeOZdzqB2MnFIt9n-47" vertex="1"><mxGeometry y="120" width="180" height="30" as="geometry"/></mxCell><mxCell id="UM2SaeOZdzqB2MnFIt9n-196" value="FK" style="shape=partialRectangle;connectable=0;fillColor=none;top=0;left=0;bottom=0;right=0;editable=1;overflow=hidden;" parent="UM2SaeOZdzqB2MnFIt9n-195" vertex="1"><mxGeometry width="30" height="30" as="geometry"/></mxCell><mxCell id="UM2SaeOZdzqB2MnFIt9n-197" value="valutazioneThreadID" style="shape=partialRectangle;connectable=0;fillColor=none;top=0;left=0;bottom=0;right=0;align=left;spacingLeft=6;overflow=hidden;" parent="UM2SaeOZdzqB2MnFIt9n-195" vertex="1"><mxGeometry x="30" width="150" height="30" as="geometry"/></mxCell><mxCell id="UM2SaeOZdzqB2MnFIt9n-94" value="" style="shape=partialRectangle;collapsible=0;dropTarget=0;pointerEvents=0;fillColor=none;top=0;left=0;bottom=0;right=0;points=[[0,0.5],[1,0.5]];portConstraint=eastwest;" parent="UM2SaeOZdzqB2MnFIt9n-47" vertex="1"><mxGeometry y="150" width="180" height="30" as="geometry"/></mxCell><mxCell id="UM2SaeOZdzqB2MnFIt9n-95" value="" style="shape=partialRectangle;connectable=0;fillColor=none;top=0;left=0;bottom=0;right=0;editable=1;overflow=hidden;" parent="UM2SaeOZdzqB2MnFIt9n-94" vertex="1"><mxGeometry width="30" height="30" as="geometry"/></mxCell><mxCell id="UM2SaeOZdzqB2MnFIt9n-96" value="titolo" style="shape=partialRectangle;connectable=0;fillColor=none;top=0;left=0;bottom=0;right=0;align=left;spacingLeft=6;overflow=hidden;" parent="UM2SaeOZdzqB2MnFIt9n-94" vertex="1"><mxGeometry x="30" width="150" height="30" as="geometry"/></mxCell><mxCell id="UM2SaeOZdzqB2MnFIt9n-97" value="" style="shape=partialRectangle;collapsible=0;dropTarget=0;pointerEvents=0;fillColor=none;top=0;left=0;bottom=0;right=0;points=[[0,0.5],[1,0.5]];portConstraint=eastwest;" parent="UM2SaeOZdzqB2MnFIt9n-47" vertex="1"><mxGeometry y="180" width="180" height="30" as="geometry"/></mxCell><mxCell id="UM2SaeOZdzqB2MnFIt9n-98" value="" style="shape=partialRectangle;connectable=0;fillColor=none;top=0;left=0;bottom=0;right=0;editable=1;overflow=hidden;" parent="UM2SaeOZdzqB2MnFIt9n-97" vertex="1"><mxGeometry width="30" height="30" as="geometry"/></mxCell><mxCell id="UM2SaeOZdzqB2MnFIt9n-99" value="testo" style="shape=partialRectangle;connectable=0;fillColor=none;top=0;left=0;bottom=0;right=0;align=left;spacingLeft=6;overflow=hidden;" parent="UM2SaeOZdzqB2MnFIt9n-97" vertex="1"><mxGeometry x="30" width="150" height="30" as="geometry"/></mxCell><mxCell id="UM2SaeOZdzqB2MnFIt9n-100" value="" style="shape=partialRectangle;collapsible=0;dropTarget=0;pointerEvents=0;fillColor=none;top=0;left=0;bottom=0;right=0;points=[[0,0.5],[1,0.5]];portConstraint=eastwest;" parent="UM2SaeOZdzqB2MnFIt9n-47" vertex="1"><mxGeometry y="210" width="180" height="30" as="geometry"/></mxCell><mxCell id="UM2SaeOZdzqB2MnFIt9n-101" value="" style="shape=partialRectangle;connectable=0;fillColor=none;top=0;left=0;bottom=0;right=0;editable=1;overflow=hidden;" parent="UM2SaeOZdzqB2MnFIt9n-100" vertex="1"><mxGeometry width="30" height="30" as="geometry"/></mxCell><mxCell id="UM2SaeOZdzqB2MnFIt9n-102" value="data" style="shape=partialRectangle;connectable=0;fillColor=none;top=0;left=0;bottom=0;right=0;align=left;spacingLeft=6;overflow=hidden;" parent="UM2SaeOZdzqB2MnFIt9n-100" vertex="1"><mxGeometry x="30" width="150" height="30" as="geometry"/></mxCell><mxCell id="pHJJILmyUadZpqao-1yw-46" style="edgeStyle=orthogonalEdgeStyle;rounded=0;orthogonalLoop=1;jettySize=auto;html=1;" parent="1" source="UM2SaeOZdzqB2MnFIt9n-75" target="pHJJILmyUadZpqao-1yw-30" edge="1"><mxGeometry relative="1" as="geometry"/></mxCell><mxCell id="UM2SaeOZdzqB2MnFIt9n-75" value="Categorie" style="shape=table;startSize=30;container=1;collapsible=1;childLayout=tableLayout;fixedRows=1;rowLines=0;fontStyle=1;align=center;resizeLast=1;fillColor=#FFFFFF;" parent="1" vertex="1"><mxGeometry x="1320" y="290" width="180" height="190" as="geometry"/></mxCell><mxCell id="UM2SaeOZdzqB2MnFIt9n-76" value="" style="shape=partialRectangle;collapsible=0;dropTarget=0;pointerEvents=0;fillColor=none;top=0;left=0;bottom=1;right=0;points=[[0,0.5],[1,0.5]];portConstraint=eastwest;" parent="UM2SaeOZdzqB2MnFIt9n-75" vertex="1"><mxGeometry y="30" width="180" height="30" as="geometry"/></mxCell><mxCell id="UM2SaeOZdzqB2MnFIt9n-77" value="PK" style="shape=partialRectangle;connectable=0;fillColor=none;top=0;left=0;bottom=0;right=0;fontStyle=1;overflow=hidden;" parent="UM2SaeOZdzqB2MnFIt9n-76" vertex="1"><mxGeometry width="30" height="30" as="geometry"/></mxCell><mxCell id="UM2SaeOZdzqB2MnFIt9n-78" value="categoriaID" style="shape=partialRectangle;connectable=0;fillColor=none;top=0;left=0;bottom=0;right=0;align=left;spacingLeft=6;fontStyle=5;overflow=hidden;" parent="UM2SaeOZdzqB2MnFIt9n-76" vertex="1"><mxGeometry x="30" width="150" height="30" as="geometry"/></mxCell><mxCell id="UM2SaeOZdzqB2MnFIt9n-219" value="" style="shape=partialRectangle;collapsible=0;dropTarget=0;pointerEvents=0;fillColor=none;top=0;left=0;bottom=0;right=0;points=[[0,0.5],[1,0.5]];portConstraint=eastwest;" parent="UM2SaeOZdzqB2MnFIt9n-75" vertex="1"><mxGeometry y="60" width="180" height="30" as="geometry"/></mxCell><mxCell id="UM2SaeOZdzqB2MnFIt9n-220" value="FK" style="shape=partialRectangle;connectable=0;fillColor=none;top=0;left=0;bottom=0;right=0;editable=1;overflow=hidden;" parent="UM2SaeOZdzqB2MnFIt9n-219" vertex="1"><mxGeometry width="30" height="30" as="geometry"/></mxCell><mxCell id="UM2SaeOZdzqB2MnFIt9n-221" value="moderatoreID" style="shape=partialRectangle;connectable=0;fillColor=none;top=0;left=0;bottom=0;right=0;align=left;spacingLeft=6;overflow=hidden;" parent="UM2SaeOZdzqB2MnFIt9n-219" vertex="1"><mxGeometry x="30" width="150" height="30" as="geometry"/></mxCell><mxCell id="UM2SaeOZdzqB2MnFIt9n-79" value="" style="shape=partialRectangle;collapsible=0;dropTarget=0;pointerEvents=0;fillColor=none;top=0;left=0;bottom=0;right=0;points=[[0,0.5],[1,0.5]];portConstraint=eastwest;" parent="UM2SaeOZdzqB2MnFIt9n-75" vertex="1"><mxGeometry y="90" width="180" height="30" as="geometry"/></mxCell><mxCell id="UM2SaeOZdzqB2MnFIt9n-80" value="" style="shape=partialRectangle;connectable=0;fillColor=none;top=0;left=0;bottom=0;right=0;editable=1;overflow=hidden;" parent="UM2SaeOZdzqB2MnFIt9n-79" vertex="1"><mxGeometry width="30" height="30" as="geometry"/></mxCell><mxCell id="UM2SaeOZdzqB2MnFIt9n-81" value="nome" style="shape=partialRectangle;connectable=0;fillColor=none;top=0;left=0;bottom=0;right=0;align=left;spacingLeft=6;overflow=hidden;" parent="UM2SaeOZdzqB2MnFIt9n-79" vertex="1"><mxGeometry x="30" width="150" height="30" as="geometry"/></mxCell><mxCell id="UM2SaeOZdzqB2MnFIt9n-82" value="" style="shape=partialRectangle;collapsible=0;dropTarget=0;pointerEvents=0;fillColor=none;top=0;left=0;bottom=0;right=0;points=[[0,0.5],[1,0.5]];portConstraint=eastwest;" parent="UM2SaeOZdzqB2MnFIt9n-75" vertex="1"><mxGeometry y="120" width="180" height="30" as="geometry"/></mxCell><mxCell id="UM2SaeOZdzqB2MnFIt9n-83" value="FK" style="shape=partialRectangle;connectable=0;fillColor=none;top=0;left=0;bottom=0;right=0;editable=1;overflow=hidden;" parent="UM2SaeOZdzqB2MnFIt9n-82" vertex="1"><mxGeometry width="30" height="30" as="geometry"/></mxCell><mxCell id="UM2SaeOZdzqB2MnFIt9n-84" value="iconaID" style="shape=partialRectangle;connectable=0;fillColor=none;top=0;left=0;bottom=0;right=0;align=left;spacingLeft=6;overflow=hidden;" parent="UM2SaeOZdzqB2MnFIt9n-82" vertex="1"><mxGeometry x="30" width="150" height="30" as="geometry"/></mxCell><mxCell id="UM2SaeOZdzqB2MnFIt9n-85" value="" style="shape=partialRectangle;collapsible=0;dropTarget=0;pointerEvents=0;fillColor=none;top=0;left=0;bottom=0;right=0;points=[[0,0.5],[1,0.5]];portConstraint=eastwest;" parent="UM2SaeOZdzqB2MnFIt9n-75" vertex="1"><mxGeometry y="150" width="180" height="30" as="geometry"/></mxCell><mxCell id="UM2SaeOZdzqB2MnFIt9n-86" value="" style="shape=partialRectangle;connectable=0;fillColor=none;top=0;left=0;bottom=0;right=0;editable=1;overflow=hidden;" parent="UM2SaeOZdzqB2MnFIt9n-85" vertex="1"><mxGeometry width="30" height="30" as="geometry"/></mxCell><mxCell id="UM2SaeOZdzqB2MnFIt9n-87" value="descrizione" style="shape=partialRectangle;connectable=0;fillColor=none;top=0;left=0;bottom=0;right=0;align=left;spacingLeft=6;overflow=hidden;" parent="UM2SaeOZdzqB2MnFIt9n-85" vertex="1"><mxGeometry x="30" width="150" height="30" as="geometry"/></mxCell><mxCell id="UM2SaeOZdzqB2MnFIt9n-116" style="edgeStyle=orthogonalEdgeStyle;rounded=0;orthogonalLoop=1;jettySize=auto;html=1;endArrow=classic;endFill=1;" parent="1" source="UM2SaeOZdzqB2MnFIt9n-103" target="UM2SaeOZdzqB2MnFIt9n-1" edge="1"><mxGeometry relative="1" as="geometry"><Array as="points"><mxPoint x="720" y="670"/><mxPoint x="720" y="400"/></Array><mxPoint x="650" y="400" as="targetPoint"/></mxGeometry></mxCell><mxCell id="UM2SaeOZdzqB2MnFIt9n-117" value="&lt;b&gt;&lt;font style=&quot;font-size: 14px&quot;&gt;autoreRispID = userID&lt;/font&gt;&lt;/b&gt;" style="edgeLabel;html=1;align=center;verticalAlign=middle;resizable=0;points=[];" parent="UM2SaeOZdzqB2MnFIt9n-116" vertex="1" connectable="0"><mxGeometry x="-0.7057" y="1" relative="1" as="geometry"><mxPoint x="-2" y="-11" as="offset"/></mxGeometry></mxCell><mxCell id="UM2SaeOZdzqB2MnFIt9n-118" style="edgeStyle=orthogonalEdgeStyle;rounded=0;orthogonalLoop=1;jettySize=auto;html=1;endArrow=classic;endFill=1;" parent="1" source="UM2SaeOZdzqB2MnFIt9n-103" target="UM2SaeOZdzqB2MnFIt9n-47" edge="1"><mxGeometry relative="1" as="geometry"><Array as="points"><mxPoint x="970" y="570"/><mxPoint x="970" y="570"/></Array></mxGeometry></mxCell><mxCell id="UM2SaeOZdzqB2MnFIt9n-122" value="&lt;b&gt;&lt;font style=&quot;font-size: 14px&quot;&gt;threadRispID = ThreadID&lt;/font&gt;&lt;/b&gt;" style="edgeLabel;html=1;align=center;verticalAlign=middle;resizable=0;points=[];" parent="UM2SaeOZdzqB2MnFIt9n-118" vertex="1" connectable="0"><mxGeometry x="0.2632" y="1" relative="1" as="geometry"><mxPoint x="91" y="15" as="offset"/></mxGeometry></mxCell><mxCell id="UM2SaeOZdzqB2MnFIt9n-103" value="Risposte" style="shape=table;startSize=30;container=1;collapsible=1;childLayout=tableLayout;fixedRows=1;rowLines=0;fontStyle=1;align=center;resizeLast=1;fillColor=#FFFFFF;" parent="1" vertex="1"><mxGeometry x="880" y="590" width="180" height="190" as="geometry"/></mxCell><mxCell id="UM2SaeOZdzqB2MnFIt9n-104" value="" style="shape=partialRectangle;collapsible=0;dropTarget=0;pointerEvents=0;fillColor=none;top=0;left=0;bottom=1;right=0;points=[[0,0.5],[1,0.5]];portConstraint=eastwest;" parent="UM2SaeOZdzqB2MnFIt9n-103" vertex="1"><mxGeometry y="30" width="180" height="30" as="geometry"/></mxCell><mxCell id="UM2SaeOZdzqB2MnFIt9n-105" value="PK" style="shape=partialRectangle;connectable=0;fillColor=none;top=0;left=0;bottom=0;right=0;fontStyle=1;overflow=hidden;" parent="UM2SaeOZdzqB2MnFIt9n-104" vertex="1"><mxGeometry width="30" height="30" as="geometry"/></mxCell><mxCell id="UM2SaeOZdzqB2MnFIt9n-106" value="rispostaID" style="shape=partialRectangle;connectable=0;fillColor=none;top=0;left=0;bottom=0;right=0;align=left;spacingLeft=6;fontStyle=5;overflow=hidden;" parent="UM2SaeOZdzqB2MnFIt9n-104" vertex="1"><mxGeometry x="30" width="150" height="30" as="geometry"/></mxCell><mxCell id="UM2SaeOZdzqB2MnFIt9n-107" value="" style="shape=partialRectangle;collapsible=0;dropTarget=0;pointerEvents=0;fillColor=none;top=0;left=0;bottom=0;right=0;points=[[0,0.5],[1,0.5]];portConstraint=eastwest;" parent="UM2SaeOZdzqB2MnFIt9n-103" vertex="1"><mxGeometry y="60" width="180" height="30" as="geometry"/></mxCell><mxCell id="UM2SaeOZdzqB2MnFIt9n-108" value="FK" style="shape=partialRectangle;connectable=0;fillColor=none;top=0;left=0;bottom=0;right=0;editable=1;overflow=hidden;" parent="UM2SaeOZdzqB2MnFIt9n-107" vertex="1"><mxGeometry width="30" height="30" as="geometry"/></mxCell><mxCell id="UM2SaeOZdzqB2MnFIt9n-109" value="autoreRispID" style="shape=partialRectangle;connectable=0;fillColor=none;top=0;left=0;bottom=0;right=0;align=left;spacingLeft=6;overflow=hidden;" parent="UM2SaeOZdzqB2MnFIt9n-107" vertex="1"><mxGeometry x="30" width="150" height="30" as="geometry"/></mxCell><mxCell id="UM2SaeOZdzqB2MnFIt9n-119" value="" style="shape=partialRectangle;collapsible=0;dropTarget=0;pointerEvents=0;fillColor=none;top=0;left=0;bottom=0;right=0;points=[[0,0.5],[1,0.5]];portConstraint=eastwest;" parent="UM2SaeOZdzqB2MnFIt9n-103" vertex="1"><mxGeometry y="90" width="180" height="30" as="geometry"/></mxCell><mxCell id="UM2SaeOZdzqB2MnFIt9n-120" value="FK" style="shape=partialRectangle;connectable=0;fillColor=none;top=0;left=0;bottom=0;right=0;editable=1;overflow=hidden;" parent="UM2SaeOZdzqB2MnFIt9n-119" vertex="1"><mxGeometry width="30" height="30" as="geometry"/></mxCell><mxCell id="UM2SaeOZdzqB2MnFIt9n-121" value="threadRispID" style="shape=partialRectangle;connectable=0;fillColor=none;top=0;left=0;bottom=0;right=0;align=left;spacingLeft=6;overflow=hidden;" parent="UM2SaeOZdzqB2MnFIt9n-119" vertex="1"><mxGeometry x="30" width="150" height="30" as="geometry"/></mxCell><mxCell id="UM2SaeOZdzqB2MnFIt9n-110" value="" style="shape=partialRectangle;collapsible=0;dropTarget=0;pointerEvents=0;fillColor=none;top=0;left=0;bottom=0;right=0;points=[[0,0.5],[1,0.5]];portConstraint=eastwest;" parent="UM2SaeOZdzqB2MnFIt9n-103" vertex="1"><mxGeometry y="120" width="180" height="30" as="geometry"/></mxCell><mxCell id="UM2SaeOZdzqB2MnFIt9n-111" value="" style="shape=partialRectangle;connectable=0;fillColor=none;top=0;left=0;bottom=0;right=0;editable=1;overflow=hidden;" parent="UM2SaeOZdzqB2MnFIt9n-110" vertex="1"><mxGeometry width="30" height="30" as="geometry"/></mxCell><mxCell id="UM2SaeOZdzqB2MnFIt9n-112" value="testo" style="shape=partialRectangle;connectable=0;fillColor=none;top=0;left=0;bottom=0;right=0;align=left;spacingLeft=6;overflow=hidden;" parent="UM2SaeOZdzqB2MnFIt9n-110" vertex="1"><mxGeometry x="30" width="150" height="30" as="geometry"/></mxCell><mxCell id="UM2SaeOZdzqB2MnFIt9n-113" value="" style="shape=partialRectangle;collapsible=0;dropTarget=0;pointerEvents=0;fillColor=none;top=0;left=0;bottom=0;right=0;points=[[0,0.5],[1,0.5]];portConstraint=eastwest;" parent="UM2SaeOZdzqB2MnFIt9n-103" vertex="1"><mxGeometry y="150" width="180" height="30" as="geometry"/></mxCell><mxCell id="UM2SaeOZdzqB2MnFIt9n-114" value="" style="shape=partialRectangle;connectable=0;fillColor=none;top=0;left=0;bottom=0;right=0;editable=1;overflow=hidden;" parent="UM2SaeOZdzqB2MnFIt9n-113" vertex="1"><mxGeometry width="30" height="30" as="geometry"/></mxCell><mxCell id="UM2SaeOZdzqB2MnFIt9n-115" value="data" style="shape=partialRectangle;connectable=0;fillColor=none;top=0;left=0;bottom=0;right=0;align=left;spacingLeft=6;overflow=hidden;" parent="UM2SaeOZdzqB2MnFIt9n-113" vertex="1"><mxGeometry x="30" width="150" height="30" as="geometry"/></mxCell><mxCell id="UM2SaeOZdzqB2MnFIt9n-123" value="Valutazioni" style="shape=table;startSize=30;container=1;collapsible=1;childLayout=tableLayout;fixedRows=1;rowLines=0;fontStyle=1;align=center;resizeLast=1;fillColor=#FFFFFF;" parent="1" vertex="1"><mxGeometry x="1205" y="600" width="180" height="100" as="geometry"/></mxCell><mxCell id="UM2SaeOZdzqB2MnFIt9n-124" value="" style="shape=partialRectangle;collapsible=0;dropTarget=0;pointerEvents=0;fillColor=none;top=0;left=0;bottom=1;right=0;points=[[0,0.5],[1,0.5]];portConstraint=eastwest;" parent="UM2SaeOZdzqB2MnFIt9n-123" vertex="1"><mxGeometry y="30" width="180" height="30" as="geometry"/></mxCell><mxCell id="UM2SaeOZdzqB2MnFIt9n-125" value="PK" style="shape=partialRectangle;connectable=0;fillColor=none;top=0;left=0;bottom=0;right=0;fontStyle=1;overflow=hidden;" parent="UM2SaeOZdzqB2MnFIt9n-124" vertex="1"><mxGeometry width="30" height="30" as="geometry"/></mxCell><mxCell id="UM2SaeOZdzqB2MnFIt9n-126" value="valutazioneID" style="shape=partialRectangle;connectable=0;fillColor=none;top=0;left=0;bottom=0;right=0;align=left;spacingLeft=6;fontStyle=5;overflow=hidden;" parent="UM2SaeOZdzqB2MnFIt9n-124" vertex="1"><mxGeometry x="30" width="150" height="30" as="geometry"/></mxCell><mxCell id="UM2SaeOZdzqB2MnFIt9n-127" value="" style="shape=partialRectangle;collapsible=0;dropTarget=0;pointerEvents=0;fillColor=none;top=0;left=0;bottom=0;right=0;points=[[0,0.5],[1,0.5]];portConstraint=eastwest;" parent="UM2SaeOZdzqB2MnFIt9n-123" vertex="1"><mxGeometry y="60" width="180" height="30" as="geometry"/></mxCell><mxCell id="UM2SaeOZdzqB2MnFIt9n-128" value="" style="shape=partialRectangle;connectable=0;fillColor=none;top=0;left=0;bottom=0;right=0;editable=1;overflow=hidden;" parent="UM2SaeOZdzqB2MnFIt9n-127" vertex="1"><mxGeometry width="30" height="30" as="geometry"/></mxCell><mxCell id="UM2SaeOZdzqB2MnFIt9n-129" value="totale" style="shape=partialRectangle;connectable=0;fillColor=none;top=0;left=0;bottom=0;right=0;align=left;spacingLeft=6;overflow=hidden;" parent="UM2SaeOZdzqB2MnFIt9n-127" vertex="1"><mxGeometry x="30" width="150" height="30" as="geometry"/></mxCell><mxCell id="UM2SaeOZdzqB2MnFIt9n-169" style="edgeStyle=orthogonalEdgeStyle;rounded=0;orthogonalLoop=1;jettySize=auto;html=1;endArrow=classic;endFill=1;" parent="1" source="UM2SaeOZdzqB2MnFIt9n-149" target="UM2SaeOZdzqB2MnFIt9n-1" edge="1"><mxGeometry relative="1" as="geometry"><Array as="points"><mxPoint x="630" y="850"/></Array><mxPoint x="630" y="520" as="targetPoint"/></mxGeometry></mxCell><mxCell id="UM2SaeOZdzqB2MnFIt9n-171" value="&lt;b&gt;&lt;font style=&quot;font-size: 14px&quot;&gt;userID = userID&lt;/font&gt;&lt;/b&gt;" style="edgeLabel;html=1;align=center;verticalAlign=middle;resizable=0;points=[];" parent="UM2SaeOZdzqB2MnFIt9n-169" vertex="1" connectable="0"><mxGeometry x="-0.496" y="4" relative="1" as="geometry"><mxPoint x="79" y="-17" as="offset"/></mxGeometry></mxCell><mxCell id="UM2SaeOZdzqB2MnFIt9n-173" style="edgeStyle=orthogonalEdgeStyle;rounded=0;orthogonalLoop=1;jettySize=auto;html=1;endArrow=classic;endFill=1;" parent="1" source="UM2SaeOZdzqB2MnFIt9n-149" target="UM2SaeOZdzqB2MnFIt9n-123" edge="1"><mxGeometry relative="1" as="geometry"><Array as="points"><mxPoint x="1270" y="850"/></Array></mxGeometry></mxCell><mxCell id="UM2SaeOZdzqB2MnFIt9n-175" value="&lt;b&gt;&lt;font style=&quot;font-size: 14px&quot;&gt;valutazioneID = valutazioneID&lt;/font&gt;&lt;/b&gt;" style="edgeLabel;html=1;align=center;verticalAlign=middle;resizable=0;points=[];" parent="UM2SaeOZdzqB2MnFIt9n-173" vertex="1" connectable="0"><mxGeometry x="-0.6341" y="1" relative="1" as="geometry"><mxPoint x="35" y="-12" as="offset"/></mxGeometry></mxCell><mxCell id="UM2SaeOZdzqB2MnFIt9n-149" value="VotiPositivi" style="shape=table;startSize=30;container=1;collapsible=1;childLayout=tableLayout;fixedRows=1;rowLines=0;fontStyle=1;align=center;resizeLast=1;fillColor=#FFFFFF;" parent="1" vertex="1"><mxGeometry x="880" y="800" width="180" height="100" as="geometry"/></mxCell><mxCell id="UM2SaeOZdzqB2MnFIt9n-150" value="" style="shape=partialRectangle;collapsible=0;dropTarget=0;pointerEvents=0;fillColor=none;top=0;left=0;bottom=0;right=0;points=[[0,0.5],[1,0.5]];portConstraint=eastwest;" parent="UM2SaeOZdzqB2MnFIt9n-149" vertex="1"><mxGeometry y="30" width="180" height="30" as="geometry"/></mxCell><mxCell id="UM2SaeOZdzqB2MnFIt9n-151" value="PK,FK1" style="shape=partialRectangle;connectable=0;fillColor=none;top=0;left=0;bottom=0;right=0;fontStyle=1;overflow=hidden;" parent="UM2SaeOZdzqB2MnFIt9n-150" vertex="1"><mxGeometry width="60" height="30" as="geometry"/></mxCell><mxCell id="UM2SaeOZdzqB2MnFIt9n-152" value="valutazioneID" style="shape=partialRectangle;connectable=0;fillColor=none;top=0;left=0;bottom=0;right=0;align=left;spacingLeft=6;fontStyle=5;overflow=hidden;" parent="UM2SaeOZdzqB2MnFIt9n-150" vertex="1"><mxGeometry x="60" width="120" height="30" as="geometry"/></mxCell><mxCell id="UM2SaeOZdzqB2MnFIt9n-153" value="" style="shape=partialRectangle;collapsible=0;dropTarget=0;pointerEvents=0;fillColor=none;top=0;left=0;bottom=1;right=0;points=[[0,0.5],[1,0.5]];portConstraint=eastwest;" parent="UM2SaeOZdzqB2MnFIt9n-149" vertex="1"><mxGeometry y="60" width="180" height="30" as="geometry"/></mxCell><mxCell id="UM2SaeOZdzqB2MnFIt9n-154" value="PK,FK2" style="shape=partialRectangle;connectable=0;fillColor=none;top=0;left=0;bottom=0;right=0;fontStyle=1;overflow=hidden;" parent="UM2SaeOZdzqB2MnFIt9n-153" vertex="1"><mxGeometry width="60" height="30" as="geometry"/></mxCell><mxCell id="UM2SaeOZdzqB2MnFIt9n-155" value="userID" style="shape=partialRectangle;connectable=0;fillColor=none;top=0;left=0;bottom=0;right=0;align=left;spacingLeft=6;fontStyle=5;overflow=hidden;" parent="UM2SaeOZdzqB2MnFIt9n-153" vertex="1"><mxGeometry x="60" width="120" height="30" as="geometry"/></mxCell><mxCell id="UM2SaeOZdzqB2MnFIt9n-174" style="edgeStyle=orthogonalEdgeStyle;rounded=0;orthogonalLoop=1;jettySize=auto;html=1;endArrow=classic;endFill=1;" parent="1" source="UM2SaeOZdzqB2MnFIt9n-162" target="UM2SaeOZdzqB2MnFIt9n-123" edge="1"><mxGeometry relative="1" as="geometry"><Array as="points"><mxPoint x="1320" y="970"/></Array></mxGeometry></mxCell><mxCell id="UM2SaeOZdzqB2MnFIt9n-162" value="VotiNegativi" style="shape=table;startSize=30;container=1;collapsible=1;childLayout=tableLayout;fixedRows=1;rowLines=0;fontStyle=1;align=center;resizeLast=1;fillColor=#FFFFFF;" parent="1" vertex="1"><mxGeometry x="880" y="920" width="180" height="100" as="geometry"/></mxCell><mxCell id="UM2SaeOZdzqB2MnFIt9n-163" value="" style="shape=partialRectangle;collapsible=0;dropTarget=0;pointerEvents=0;fillColor=none;top=0;left=0;bottom=0;right=0;points=[[0,0.5],[1,0.5]];portConstraint=eastwest;" parent="UM2SaeOZdzqB2MnFIt9n-162" vertex="1"><mxGeometry y="30" width="180" height="30" as="geometry"/></mxCell><mxCell id="UM2SaeOZdzqB2MnFIt9n-164" value="PK,FK1" style="shape=partialRectangle;connectable=0;fillColor=none;top=0;left=0;bottom=0;right=0;fontStyle=1;overflow=hidden;" parent="UM2SaeOZdzqB2MnFIt9n-163" vertex="1"><mxGeometry width="60" height="30" as="geometry"/></mxCell><mxCell id="UM2SaeOZdzqB2MnFIt9n-165" value="valutazioneID" style="shape=partialRectangle;connectable=0;fillColor=none;top=0;left=0;bottom=0;right=0;align=left;spacingLeft=6;fontStyle=5;overflow=hidden;" parent="UM2SaeOZdzqB2MnFIt9n-163" vertex="1"><mxGeometry x="60" width="120" height="30" as="geometry"/></mxCell><mxCell id="UM2SaeOZdzqB2MnFIt9n-166" value="" style="shape=partialRectangle;collapsible=0;dropTarget=0;pointerEvents=0;fillColor=none;top=0;left=0;bottom=1;right=0;points=[[0,0.5],[1,0.5]];portConstraint=eastwest;" parent="UM2SaeOZdzqB2MnFIt9n-162" vertex="1"><mxGeometry y="60" width="180" height="30" as="geometry"/></mxCell><mxCell id="UM2SaeOZdzqB2MnFIt9n-167" value="PK,FK2" style="shape=partialRectangle;connectable=0;fillColor=none;top=0;left=0;bottom=0;right=0;fontStyle=1;overflow=hidden;" parent="UM2SaeOZdzqB2MnFIt9n-166" vertex="1"><mxGeometry width="60" height="30" as="geometry"/></mxCell><mxCell id="UM2SaeOZdzqB2MnFIt9n-168" value="userID" style="shape=partialRectangle;connectable=0;fillColor=none;top=0;left=0;bottom=0;right=0;align=left;spacingLeft=6;fontStyle=5;overflow=hidden;" parent="UM2SaeOZdzqB2MnFIt9n-166" vertex="1"><mxGeometry x="60" width="120" height="30" as="geometry"/></mxCell><mxCell id="UM2SaeOZdzqB2MnFIt9n-170" style="edgeStyle=orthogonalEdgeStyle;rounded=0;orthogonalLoop=1;jettySize=auto;html=1;endArrow=classic;endFill=1;" parent="1" source="UM2SaeOZdzqB2MnFIt9n-163" target="UM2SaeOZdzqB2MnFIt9n-1" edge="1"><mxGeometry relative="1" as="geometry"><Array as="points"><mxPoint x="600" y="965"/></Array><mxPoint x="600" y="520" as="targetPoint"/></mxGeometry></mxCell><mxCell id="UM2SaeOZdzqB2MnFIt9n-172" value="&lt;b style=&quot;color: rgb(0, 0, 0); font-family: helvetica; font-size: 11px; font-style: normal; letter-spacing: normal; text-align: center; text-indent: 0px; text-transform: none; word-spacing: 0px;&quot;&gt;&lt;font style=&quot;font-size: 14px&quot;&gt;userID = userID&lt;/font&gt;&lt;/b&gt;" style="text;whiteSpace=wrap;html=1;" parent="1" vertex="1"><mxGeometry x="770" y="940" width="130" height="30" as="geometry"/></mxCell><mxCell id="UM2SaeOZdzqB2MnFIt9n-176" value="&lt;b style=&quot;color: rgb(0, 0, 0); font-family: helvetica; font-size: 11px; font-style: normal; letter-spacing: normal; text-align: center; text-indent: 0px; text-transform: none; word-spacing: 0px;&quot;&gt;&lt;font style=&quot;font-size: 14px&quot;&gt;valutazioneID = valutazioneID&lt;/font&gt;&lt;/b&gt;" style="text;whiteSpace=wrap;html=1;" parent="1" vertex="1"><mxGeometry x="1060" y="940" width="220" height="30" as="geometry"/></mxCell><mxCell id="UM2SaeOZdzqB2MnFIt9n-199" value="Allegati" style="shape=table;startSize=30;container=1;collapsible=1;childLayout=tableLayout;fixedRows=1;rowLines=0;fontStyle=1;align=center;resizeLast=1;fillColor=#FFFFFF;" parent="1" vertex="1"><mxGeometry x="1320" y="40" width="180" height="220" as="geometry"/></mxCell><mxCell id="UM2SaeOZdzqB2MnFIt9n-200" value="" style="shape=partialRectangle;collapsible=0;dropTarget=0;pointerEvents=0;fillColor=none;top=0;left=0;bottom=1;right=0;points=[[0,0.5],[1,0.5]];portConstraint=eastwest;" parent="UM2SaeOZdzqB2MnFIt9n-199" vertex="1"><mxGeometry y="30" width="180" height="30" as="geometry"/></mxCell><mxCell id="UM2SaeOZdzqB2MnFIt9n-201" value="PK" style="shape=partialRectangle;connectable=0;fillColor=none;top=0;left=0;bottom=0;right=0;fontStyle=1;overflow=hidden;" parent="UM2SaeOZdzqB2MnFIt9n-200" vertex="1"><mxGeometry width="30" height="30" as="geometry"/></mxCell><mxCell id="UM2SaeOZdzqB2MnFIt9n-202" value="allegatoID" style="shape=partialRectangle;connectable=0;fillColor=none;top=0;left=0;bottom=0;right=0;align=left;spacingLeft=6;fontStyle=5;overflow=hidden;" parent="UM2SaeOZdzqB2MnFIt9n-200" vertex="1"><mxGeometry x="30" width="150" height="30" as="geometry"/></mxCell><mxCell id="UM2SaeOZdzqB2MnFIt9n-203" value="" style="shape=partialRectangle;collapsible=0;dropTarget=0;pointerEvents=0;fillColor=none;top=0;left=0;bottom=0;right=0;points=[[0,0.5],[1,0.5]];portConstraint=eastwest;" parent="UM2SaeOZdzqB2MnFIt9n-199" vertex="1"><mxGeometry y="60" width="180" height="30" as="geometry"/></mxCell><mxCell id="UM2SaeOZdzqB2MnFIt9n-204" value="FK" style="shape=partialRectangle;connectable=0;fillColor=none;top=0;left=0;bottom=0;right=0;editable=1;overflow=hidden;" parent="UM2SaeOZdzqB2MnFIt9n-203" vertex="1"><mxGeometry width="30" height="30" as="geometry"/></mxCell><mxCell id="UM2SaeOZdzqB2MnFIt9n-205" value="threadID" style="shape=partialRectangle;connectable=0;fillColor=none;top=0;left=0;bottom=0;right=0;align=left;spacingLeft=6;overflow=hidden;" parent="UM2SaeOZdzqB2MnFIt9n-203" vertex="1"><mxGeometry x="30" width="150" height="30" as="geometry"/></mxCell><mxCell id="UM2SaeOZdzqB2MnFIt9n-215" value="" style="shape=partialRectangle;collapsible=0;dropTarget=0;pointerEvents=0;fillColor=none;top=0;left=0;bottom=0;right=0;points=[[0,0.5],[1,0.5]];portConstraint=eastwest;" parent="UM2SaeOZdzqB2MnFIt9n-199" vertex="1"><mxGeometry y="90" width="180" height="30" as="geometry"/></mxCell><mxCell id="UM2SaeOZdzqB2MnFIt9n-216" value="" style="shape=partialRectangle;connectable=0;fillColor=none;top=0;left=0;bottom=0;right=0;editable=1;overflow=hidden;" parent="UM2SaeOZdzqB2MnFIt9n-215" vertex="1"><mxGeometry width="30" height="30" as="geometry"/></mxCell><mxCell id="UM2SaeOZdzqB2MnFIt9n-217" value="nome" style="shape=partialRectangle;connectable=0;fillColor=none;top=0;left=0;bottom=0;right=0;align=left;spacingLeft=6;overflow=hidden;" parent="UM2SaeOZdzqB2MnFIt9n-215" vertex="1"><mxGeometry x="30" width="150" height="30" as="geometry"/></mxCell><mxCell id="pHJJILmyUadZpqao-1yw-21" value="" style="shape=partialRectangle;collapsible=0;dropTarget=0;pointerEvents=0;fillColor=none;top=0;left=0;bottom=0;right=0;points=[[0,0.5],[1,0.5]];portConstraint=eastwest;" parent="UM2SaeOZdzqB2MnFIt9n-199" vertex="1"><mxGeometry y="120" width="180" height="30" as="geometry"/></mxCell><mxCell id="pHJJILmyUadZpqao-1yw-22" value="" style="shape=partialRectangle;connectable=0;fillColor=none;top=0;left=0;bottom=0;right=0;editable=1;overflow=hidden;" parent="pHJJILmyUadZpqao-1yw-21" vertex="1"><mxGeometry width="30" height="30" as="geometry"/></mxCell><mxCell id="pHJJILmyUadZpqao-1yw-23" value="dimesione" style="shape=partialRectangle;connectable=0;fillColor=none;top=0;left=0;bottom=0;right=0;align=left;spacingLeft=6;overflow=hidden;" parent="pHJJILmyUadZpqao-1yw-21" vertex="1"><mxGeometry x="30" width="150" height="30" as="geometry"/></mxCell><mxCell id="pHJJILmyUadZpqao-1yw-24" value="" style="shape=partialRectangle;collapsible=0;dropTarget=0;pointerEvents=0;fillColor=none;top=0;left=0;bottom=0;right=0;points=[[0,0.5],[1,0.5]];portConstraint=eastwest;" parent="UM2SaeOZdzqB2MnFIt9n-199" vertex="1"><mxGeometry y="150" width="180" height="30" as="geometry"/></mxCell><mxCell id="pHJJILmyUadZpqao-1yw-25" value="" style="shape=partialRectangle;connectable=0;fillColor=none;top=0;left=0;bottom=0;right=0;editable=1;overflow=hidden;" parent="pHJJILmyUadZpqao-1yw-24" vertex="1"><mxGeometry width="30" height="30" as="geometry"/></mxCell><mxCell id="pHJJILmyUadZpqao-1yw-26" value="tipo" style="shape=partialRectangle;connectable=0;fillColor=none;top=0;left=0;bottom=0;right=0;align=left;spacingLeft=6;overflow=hidden;" parent="pHJJILmyUadZpqao-1yw-24" vertex="1"><mxGeometry x="30" width="150" height="30" as="geometry"/></mxCell><mxCell id="pHJJILmyUadZpqao-1yw-27" value="" style="shape=partialRectangle;collapsible=0;dropTarget=0;pointerEvents=0;fillColor=none;top=0;left=0;bottom=0;right=0;points=[[0,0.5],[1,0.5]];portConstraint=eastwest;" parent="UM2SaeOZdzqB2MnFIt9n-199" vertex="1"><mxGeometry y="180" width="180" height="30" as="geometry"/></mxCell><mxCell id="pHJJILmyUadZpqao-1yw-28" value="" style="shape=partialRectangle;connectable=0;fillColor=none;top=0;left=0;bottom=0;right=0;editable=1;overflow=hidden;" parent="pHJJILmyUadZpqao-1yw-27" vertex="1"><mxGeometry width="30" height="30" as="geometry"/></mxCell><mxCell id="pHJJILmyUadZpqao-1yw-29" value="file" style="shape=partialRectangle;connectable=0;fillColor=none;top=0;left=0;bottom=0;right=0;align=left;spacingLeft=6;overflow=hidden;" parent="pHJJILmyUadZpqao-1yw-27" vertex="1"><mxGeometry x="30" width="150" height="30" as="geometry"/></mxCell><mxCell id="pHJJILmyUadZpqao-1yw-1" value="FotoProfilo" style="shape=table;startSize=30;container=1;collapsible=1;childLayout=tableLayout;fixedRows=1;rowLines=0;fontStyle=1;align=center;resizeLast=1;" parent="1" vertex="1"><mxGeometry x="130" y="250" width="180" height="190" as="geometry"/></mxCell><mxCell id="pHJJILmyUadZpqao-1yw-2" value="" style="shape=partialRectangle;collapsible=0;dropTarget=0;pointerEvents=0;fillColor=none;top=0;left=0;bottom=1;right=0;points=[[0,0.5],[1,0.5]];portConstraint=eastwest;" parent="pHJJILmyUadZpqao-1yw-1" vertex="1"><mxGeometry y="30" width="180" height="30" as="geometry"/></mxCell><mxCell id="pHJJILmyUadZpqao-1yw-3" value="PK" style="shape=partialRectangle;connectable=0;fillColor=none;top=0;left=0;bottom=0;right=0;fontStyle=1;overflow=hidden;" parent="pHJJILmyUadZpqao-1yw-2" vertex="1"><mxGeometry width="30" height="30" as="geometry"/></mxCell><mxCell id="pHJJILmyUadZpqao-1yw-4" value="fotoID" style="shape=partialRectangle;connectable=0;fillColor=none;top=0;left=0;bottom=0;right=0;align=left;spacingLeft=6;fontStyle=5;overflow=hidden;" parent="pHJJILmyUadZpqao-1yw-2" vertex="1"><mxGeometry x="30" width="150" height="30" as="geometry"/></mxCell><mxCell id="pHJJILmyUadZpqao-1yw-5" value="" style="shape=partialRectangle;collapsible=0;dropTarget=0;pointerEvents=0;fillColor=none;top=0;left=0;bottom=0;right=0;points=[[0,0.5],[1,0.5]];portConstraint=eastwest;" parent="pHJJILmyUadZpqao-1yw-1" vertex="1"><mxGeometry y="60" width="180" height="30" as="geometry"/></mxCell><mxCell id="pHJJILmyUadZpqao-1yw-6" value="" style="shape=partialRectangle;connectable=0;fillColor=none;top=0;left=0;bottom=0;right=0;editable=1;overflow=hidden;" parent="pHJJILmyUadZpqao-1yw-5" vertex="1"><mxGeometry width="30" height="30" as="geometry"/></mxCell><mxCell id="pHJJILmyUadZpqao-1yw-7" value="nome" style="shape=partialRectangle;connectable=0;fillColor=none;top=0;left=0;bottom=0;right=0;align=left;spacingLeft=6;overflow=hidden;" parent="pHJJILmyUadZpqao-1yw-5" vertex="1"><mxGeometry x="30" width="150" height="30" as="geometry"/></mxCell><mxCell id="pHJJILmyUadZpqao-1yw-8" value="" style="shape=partialRectangle;collapsible=0;dropTarget=0;pointerEvents=0;fillColor=none;top=0;left=0;bottom=0;right=0;points=[[0,0.5],[1,0.5]];portConstraint=eastwest;" parent="pHJJILmyUadZpqao-1yw-1" vertex="1"><mxGeometry y="90" width="180" height="30" as="geometry"/></mxCell><mxCell id="pHJJILmyUadZpqao-1yw-9" value="" style="shape=partialRectangle;connectable=0;fillColor=none;top=0;left=0;bottom=0;right=0;editable=1;overflow=hidden;" parent="pHJJILmyUadZpqao-1yw-8" vertex="1"><mxGeometry width="30" height="30" as="geometry"/></mxCell><mxCell id="pHJJILmyUadZpqao-1yw-10" value="dimensione" style="shape=partialRectangle;connectable=0;fillColor=none;top=0;left=0;bottom=0;right=0;align=left;spacingLeft=6;overflow=hidden;" parent="pHJJILmyUadZpqao-1yw-8" vertex="1"><mxGeometry x="30" width="150" height="30" as="geometry"/></mxCell><mxCell id="pHJJILmyUadZpqao-1yw-11" value="" style="shape=partialRectangle;collapsible=0;dropTarget=0;pointerEvents=0;fillColor=none;top=0;left=0;bottom=0;right=0;points=[[0,0.5],[1,0.5]];portConstraint=eastwest;" parent="pHJJILmyUadZpqao-1yw-1" vertex="1"><mxGeometry y="120" width="180" height="30" as="geometry"/></mxCell><mxCell id="pHJJILmyUadZpqao-1yw-12" value="" style="shape=partialRectangle;connectable=0;fillColor=none;top=0;left=0;bottom=0;right=0;editable=1;overflow=hidden;" parent="pHJJILmyUadZpqao-1yw-11" vertex="1"><mxGeometry width="30" height="30" as="geometry"/></mxCell><mxCell id="pHJJILmyUadZpqao-1yw-13" value="tipo" style="shape=partialRectangle;connectable=0;fillColor=none;top=0;left=0;bottom=0;right=0;align=left;spacingLeft=6;overflow=hidden;" parent="pHJJILmyUadZpqao-1yw-11" vertex="1"><mxGeometry x="30" width="150" height="30" as="geometry"/></mxCell><mxCell id="pHJJILmyUadZpqao-1yw-16" value="" style="shape=partialRectangle;collapsible=0;dropTarget=0;pointerEvents=0;fillColor=none;top=0;left=0;bottom=0;right=0;points=[[0,0.5],[1,0.5]];portConstraint=eastwest;" parent="pHJJILmyUadZpqao-1yw-1" vertex="1"><mxGeometry y="150" width="180" height="30" as="geometry"/></mxCell><mxCell id="pHJJILmyUadZpqao-1yw-17" value="" style="shape=partialRectangle;connectable=0;fillColor=none;top=0;left=0;bottom=0;right=0;editable=1;overflow=hidden;" parent="pHJJILmyUadZpqao-1yw-16" vertex="1"><mxGeometry width="30" height="30" as="geometry"/></mxCell><mxCell id="pHJJILmyUadZpqao-1yw-18" value="immagine" style="shape=partialRectangle;connectable=0;fillColor=none;top=0;left=0;bottom=0;right=0;align=left;spacingLeft=6;overflow=hidden;" parent="pHJJILmyUadZpqao-1yw-16" vertex="1"><mxGeometry x="30" width="150" height="30" as="geometry"/></mxCell><mxCell id="pHJJILmyUadZpqao-1yw-20" value="&lt;b&gt;&lt;font style=&quot;font-size: 14px&quot;&gt;fotoProfiloID = fotoID&lt;/font&gt;&lt;/b&gt;" style="edgeLabel;html=1;align=center;verticalAlign=middle;resizable=0;points=[];" parent="1" vertex="1" connectable="0"><mxGeometry x="390.0014285714287" y="399.9999999999999" as="geometry"/></mxCell><mxCell id="pHJJILmyUadZpqao-1yw-30" value="Icona" style="shape=table;startSize=30;container=1;collapsible=1;childLayout=tableLayout;fixedRows=1;rowLines=0;fontStyle=1;align=center;resizeLast=1;" parent="1" vertex="1"><mxGeometry x="1700" y="290" width="180" height="190" as="geometry"/></mxCell><mxCell id="pHJJILmyUadZpqao-1yw-31" value="" style="shape=partialRectangle;collapsible=0;dropTarget=0;pointerEvents=0;fillColor=none;top=0;left=0;bottom=1;right=0;points=[[0,0.5],[1,0.5]];portConstraint=eastwest;" parent="pHJJILmyUadZpqao-1yw-30" vertex="1"><mxGeometry y="30" width="180" height="30" as="geometry"/></mxCell><mxCell id="pHJJILmyUadZpqao-1yw-32" value="PK" style="shape=partialRectangle;connectable=0;fillColor=none;top=0;left=0;bottom=0;right=0;fontStyle=1;overflow=hidden;" parent="pHJJILmyUadZpqao-1yw-31" vertex="1"><mxGeometry width="30" height="30" as="geometry"/></mxCell><mxCell id="pHJJILmyUadZpqao-1yw-33" value="iconaID" style="shape=partialRectangle;connectable=0;fillColor=none;top=0;left=0;bottom=0;right=0;align=left;spacingLeft=6;fontStyle=5;overflow=hidden;" parent="pHJJILmyUadZpqao-1yw-31" vertex="1"><mxGeometry x="30" width="150" height="30" as="geometry"/></mxCell><mxCell id="pHJJILmyUadZpqao-1yw-34" value="" style="shape=partialRectangle;collapsible=0;dropTarget=0;pointerEvents=0;fillColor=none;top=0;left=0;bottom=0;right=0;points=[[0,0.5],[1,0.5]];portConstraint=eastwest;" parent="pHJJILmyUadZpqao-1yw-30" vertex="1"><mxGeometry y="60" width="180" height="30" as="geometry"/></mxCell><mxCell id="pHJJILmyUadZpqao-1yw-35" value="" style="shape=partialRectangle;connectable=0;fillColor=none;top=0;left=0;bottom=0;right=0;editable=1;overflow=hidden;" parent="pHJJILmyUadZpqao-1yw-34" vertex="1"><mxGeometry width="30" height="30" as="geometry"/></mxCell><mxCell id="pHJJILmyUadZpqao-1yw-36" value="nome" style="shape=partialRectangle;connectable=0;fillColor=none;top=0;left=0;bottom=0;right=0;align=left;spacingLeft=6;overflow=hidden;" parent="pHJJILmyUadZpqao-1yw-34" vertex="1"><mxGeometry x="30" width="150" height="30" as="geometry"/></mxCell><mxCell id="pHJJILmyUadZpqao-1yw-37" value="" style="shape=partialRectangle;collapsible=0;dropTarget=0;pointerEvents=0;fillColor=none;top=0;left=0;bottom=0;right=0;points=[[0,0.5],[1,0.5]];portConstraint=eastwest;" parent="pHJJILmyUadZpqao-1yw-30" vertex="1"><mxGeometry y="90" width="180" height="30" as="geometry"/></mxCell><mxCell id="pHJJILmyUadZpqao-1yw-38" value="" style="shape=partialRectangle;connectable=0;fillColor=none;top=0;left=0;bottom=0;right=0;editable=1;overflow=hidden;" parent="pHJJILmyUadZpqao-1yw-37" vertex="1"><mxGeometry width="30" height="30" as="geometry"/></mxCell><mxCell id="pHJJILmyUadZpqao-1yw-39" value="dimensione" style="shape=partialRectangle;connectable=0;fillColor=none;top=0;left=0;bottom=0;right=0;align=left;spacingLeft=6;overflow=hidden;" parent="pHJJILmyUadZpqao-1yw-37" vertex="1"><mxGeometry x="30" width="150" height="30" as="geometry"/></mxCell><mxCell id="pHJJILmyUadZpqao-1yw-40" value="" style="shape=partialRectangle;collapsible=0;dropTarget=0;pointerEvents=0;fillColor=none;top=0;left=0;bottom=0;right=0;points=[[0,0.5],[1,0.5]];portConstraint=eastwest;" parent="pHJJILmyUadZpqao-1yw-30" vertex="1"><mxGeometry y="120" width="180" height="30" as="geometry"/></mxCell><mxCell id="pHJJILmyUadZpqao-1yw-41" value="" style="shape=partialRectangle;connectable=0;fillColor=none;top=0;left=0;bottom=0;right=0;editable=1;overflow=hidden;" parent="pHJJILmyUadZpqao-1yw-40" vertex="1"><mxGeometry width="30" height="30" as="geometry"/></mxCell><mxCell id="pHJJILmyUadZpqao-1yw-42" value="tipo" style="shape=partialRectangle;connectable=0;fillColor=none;top=0;left=0;bottom=0;right=0;align=left;spacingLeft=6;overflow=hidden;" parent="pHJJILmyUadZpqao-1yw-40" vertex="1"><mxGeometry x="30" width="150" height="30" as="geometry"/></mxCell><mxCell id="pHJJILmyUadZpqao-1yw-43" value="" style="shape=partialRectangle;collapsible=0;dropTarget=0;pointerEvents=0;fillColor=none;top=0;left=0;bottom=0;right=0;points=[[0,0.5],[1,0.5]];portConstraint=eastwest;" parent="pHJJILmyUadZpqao-1yw-30" vertex="1"><mxGeometry y="150" width="180" height="30" as="geometry"/></mxCell><mxCell id="pHJJILmyUadZpqao-1yw-44" value="" style="shape=partialRectangle;connectable=0;fillColor=none;top=0;left=0;bottom=0;right=0;editable=1;overflow=hidden;" parent="pHJJILmyUadZpqao-1yw-43" vertex="1"><mxGeometry width="30" height="30" as="geometry"/></mxCell><mxCell id="pHJJILmyUadZpqao-1yw-45" value="immagine" style="shape=partialRectangle;connectable=0;fillColor=none;top=0;left=0;bottom=0;right=0;align=left;spacingLeft=6;overflow=hidden;" parent="pHJJILmyUadZpqao-1yw-43" vertex="1"><mxGeometry x="30" width="150" height="30" as="geometry"/></mxCell><mxCell id="pHJJILmyUadZpqao-1yw-47" value="&lt;b&gt;&lt;font style=&quot;font-size: 14px&quot;&gt;iconaID = iconaID&lt;/font&gt;&lt;/b&gt;" style="edgeLabel;html=1;align=center;verticalAlign=middle;resizable=0;points=[];" parent="1" vertex="1" connectable="0"><mxGeometry x="1560" y="370" as="geometry"/></mxCell></root></mxGraphModel></diagram></mxfile>